<?xml version="1.0" encoding="UTF-8"?><svg id="_图层_2" xmlns="http://www.w3.org/2000/svg" viewBox="0 0 734.6 182.7"><defs><style>.cls-1,.cls-2{fill:#000;stroke-width:0px;}.cls-2{fill-rule:evenodd;}</style></defs><g id="_图层_1-2"><path class="cls-2" d="M21.9,0l59.2,27v128.8l-59.2,27L0,169.8V13L21.9,0ZM18.8,9.3l-8,4.7,8,2.9v-7.6ZM18.8,23.7l-12.1-4.4v144.1l12.1-4.4V23.7ZM25.5,156.6V26.1l30,10.8v108.8l-30,10.8ZM18.8,165.8l-8,2.9,8,4.7v-7.6ZM25.5,174.1v-10.7l33.4-12.1,10,3.1-43.4,19.8h0ZM74.5,149.5l-12.4-3.8V37.2l12.4-3.8v116.1ZM68.9,28.4l-10,3-33.4-12.1v-10.7l43.3,19.7h0Z"/><path class="cls-1" d="M204.8,65.4c-4.3-7.5-10.4-13.3-18.3-17.3-7.9-4-17.2-6-27.6-6h-32.1v98.6h32.1c10.5,0,19.8-2,27.6-5.9,7.8-3.9,14-9.6,18.3-16.9,4.3-7.3,6.5-16.1,6.5-26.1s-2.2-18.8-6.5-26.3ZM185.9,118.7c-6.3,6.3-15.4,9.6-27,9.6h-16.6V54.6h16.6c11.7,0,20.8,3.3,27.1,9.9,6.2,6.5,9.4,15.7,9.4,27.3s-3.2,20.6-9.4,26.9Z"/><path class="cls-1" d="M279.3,66.4c-5.7-3.2-12.3-4.8-19.6-4.8s-14.4,1.7-20.3,4.9c-5.8,3.3-10.4,8-13.7,14-3.2,6-4.9,13.2-4.9,21.1s1.7,15.1,5,21.1c3.3,6,8,10.8,13.8,14.1,5.8,3.3,12.6,5,20,5s16.8-2.3,22.9-6.8c5.9-4.4,10.1-10.1,12.5-16.9h-16.5c-3.7,7.3-10.1,11-18.9,11s-11.5-2-15.8-5.9c-4.3-3.9-6.7-9.1-7.2-15.5v-.6s.5,0,.5,0h59.8c.3-2.2.5-4.8.5-7.5,0-7.5-1.6-14.2-4.8-20-3.2-5.7-7.7-10.3-13.4-13.5ZM281,95.3h-44.2v-.6c.8-6.2,3.3-11.2,7.4-14.8,4.1-3.6,9.1-5.5,14.8-5.5s11.7,1.9,15.9,5.6c4.3,3.7,6.5,8.7,6.6,14.8v.5s-.5,0-.5,0Z"/><rect class="cls-1" x="309.2" y="27.7" width="15.3" height="113"/><polygon class="cls-1" points="375.1 122.7 353 62.9 336 62.9 366.8 139.7 366.8 139.9 366.8 140.1 351 177.7 366.8 177.7 414.7 62.9 399 62.9 376.1 122.7 375.6 124 375.1 122.7"/><path class="cls-1" d="M468,100.6c-3.6-1.6-8.3-3.1-14-4.6-4.3-1.2-7.6-2.3-9.8-3.1-2.2-.8-4.2-2-5.8-3.5-1.6-1.5-2.5-3.4-2.5-5.7s1.2-5.1,3.7-6.9c2.4-1.7,5.8-2.5,10.2-2.5s8.1,1.1,10.8,3.3c2.6,2.1,4.1,4.9,4.4,8.3h15.3c-.5-7.4-3.4-13.3-8.6-17.6-5.4-4.4-12.5-6.7-21.3-6.7s-11.2,1-15.7,3c-4.5,2-8,4.7-10.4,8-2.4,3.4-3.6,7.1-3.6,11.2s1.3,9.1,3.9,12.1c2.7,3.1,5.8,5.4,9.5,6.9,3.7,1.5,8.5,3.1,14.4,4.7,6.1,1.7,10.6,3.3,13.5,4.8,3,1.5,4.5,3.9,4.5,7.1s-1.4,5.4-4,7.2c-2.6,1.8-6.3,2.7-11,2.7s-8.3-1.2-11.3-3.5c-2.9-2.2-4.5-5-4.9-8.3h-15.9c.3,4.4,1.8,8.5,4.4,12.1,2.8,3.8,6.7,6.8,11.5,9,4.8,2.2,10.4,3.3,16.4,3.3s11.3-1,15.7-3c4.4-2,7.9-4.7,10.3-8.1,2.4-3.4,3.6-7.4,3.6-11.7,0-4.9-1.4-8.9-4-11.8-2.6-3-5.7-5.3-9.3-6.8Z"/><path class="cls-1" d="M501.8,27.7c-2.8,0-5.2,1-7.1,2.8-1.9,1.9-2.8,4.3-2.8,7.1s1,5.2,2.8,7.1c1.9,1.9,4.3,2.8,7.1,2.8s5-1,6.9-2.8c1.9-1.9,2.8-4.3,2.8-7.1s-1-5.2-2.8-7.1c-1.9-1.9-4.2-2.8-6.9-2.8Z"/><rect class="cls-1" x="494.1" y="62.9" width="15.3" height="77.8"/><path class="cls-1" d="M543.6,122.9c-3.6-3.8-5.4-9.4-5.4-16.6v-43.4h-15.1v45.8c0,7,1.4,13.1,4.2,18.1,2.7,4.9,6.6,8.7,11.4,11.2,4.8,2.5,10.3,3.8,16.4,3.8s9-.9,13-2.7c4.1-1.8,7.4-4.3,9.9-7.5l.9-1.2v10.3h15.3V62.9h-15.3v43.4c0,7.2-1.9,12.7-5.5,16.6-3.7,3.9-8.7,5.8-14.9,5.8s-11.2-2-14.8-5.8Z"/><path class="cls-1" d="M719.1,65.4c-4.8-2.5-10.3-3.8-16.4-3.8s-11.1,1.4-16.1,4.2c-4.9,2.7-8.6,6.5-10.9,11.1l-.5.9-.5-.9c-2.6-4.9-6.4-8.8-11.2-11.4-4.9-2.6-10.5-3.9-16.6-3.9s-8.9.9-12.9,2.7c-4,1.8-7.4,4.3-10,7.4l-.9,1.1v-10h-15.3v77.8h15.3v-43.5c0-7.2,1.9-12.7,5.5-16.6,3.7-3.9,8.7-5.8,14.9-5.8s11.2,2,14.8,5.8c3.6,3.9,5.4,9.4,5.4,16.6v43.5h15.1v-43.5c0-7.2,1.9-12.7,5.5-16.6,3.7-3.9,8.7-5.8,14.9-5.8s11.2,2,14.8,5.8c3.6,3.9,5.4,9.4,5.4,16.6v43.5h15.1v-46c0-7-1.4-13.1-4.2-18.1-2.8-4.9-6.6-8.7-11.4-11.2Z"/></g></svg>